HIERARCHY
ROOT Hips
{
  OFFSET 5.84602e-005 68.8428 3.50346
  CHANNELS 6 Xposition Yposition Zposition Zrotation Xrotation Yrotation
  JOINT Spine
  {
    OFFSET 0 8.597 -4.6522
    CHANNELS 3 Zrotation Xrotation Yrotation
    JOINT Spine1
    {
      OFFSET 0 7.8454 0.4098
      CHANNELS 3 Zrotation Xrotation Yrotation
      JOINT Spine2
      {
        OFFSET 0 9.7078 -2.1609
        CHANNELS 3 Zrotation Xrotation Yrotation
        JOINT Neck
        {
          OFFSET 0 21.8761 -0.4549
          CHANNELS 3 Zrotation Xrotation Yrotation
          JOINT Head
          {
            OFFSET 0 12.3537 3.3602
            CHANNELS 3 Zrotation Xrotation Yrotation
            End Site
            {
              OFFSET 0.0001 18.9506 0.5657
            }
          }
        }
        JOINT LeftShoulder
        {
          OFFSET 2.2086 21.1115 7.2329
          CHANNELS 3 Zrotation Xrotation Yrotation
          JOINT LeftArm
          {
            OFFSET 13.1193 3.0282 -4.8998
            CHANNELS 3 Zrotation Xrotation Yrotation
            JOINT LeftForeArm
            {
              OFFSET 27.4081 -0.0973053 -0.2375
              CHANNELS 3 Zrotation Xrotation Yrotation
              JOINT LeftHand
              {
                OFFSET 22.8641 0.0662994 -0.1369
                CHANNELS 3 Zrotation Xrotation Yrotation
                JOINT LeftHandIndex1
                {
                  OFFSET 8.8614 0.775009 2.4612
                  CHANNELS 3 Zrotation Xrotation Yrotation
                  JOINT LeftHandIndex2
                  {
                    OFFSET 3.3146 -0.808304 0.5841
                    CHANNELS 3 Zrotation Xrotation Yrotation
                    JOINT LeftHandIndex3
                    {
                      OFFSET 2.2628 -0.552002 0.3989
                      CHANNELS 3 Zrotation Xrotation Yrotation
                      End Site
                      {
                        OFFSET 1.6102 -0.4807 0.2612
                      }
                    }
                  }
                }
                JOINT LeftHandMiddle1
                {
                  OFFSET 8.9937 0.895004 0.2143
                  CHANNELS 3 Zrotation Xrotation Yrotation
                  JOINT LeftHandMiddle2
                  {
                    OFFSET 4.0984 0.0113983 -0.0242
                    CHANNELS 3 Zrotation Xrotation Yrotation
                    JOINT LeftHandMiddle3
                    {
                      OFFSET 2.2716 0.00689697 -0.0138001
                      CHANNELS 3 Zrotation Xrotation Yrotation
                      End Site
                      {
                        OFFSET 2.0404 -0.1441 0.0027
                      }
                    }
                  }
                }
                JOINT LeftHandRing1
                {
                  OFFSET 8.5234 0.597198 -2.0164
                  CHANNELS 3 Zrotation Xrotation Yrotation
                  JOINT LeftHandRing2
                  {
                    OFFSET 3.7188 -0.188293 -0.2328
                    CHANNELS 3 Zrotation Xrotation Yrotation
                    JOINT LeftHandRing3
                    {
                      OFFSET 2.1191 -0.106598 -0.1332
                      CHANNELS 3 Zrotation Xrotation Yrotation
                      End Site
                      {
                        OFFSET 1.8737 -0.2304 -0.0886
                      }
                    }
                  }
                }
                JOINT LeftHandPinky1
                {
                  OFFSET 7.9094 -0.601089 -3.4825
                  CHANNELS 3 Zrotation Xrotation Yrotation
                  JOINT LeftHandPinky2
                  {
                    OFFSET 2.2874 -0.477005 -0.6314
                    CHANNELS 3 Zrotation Xrotation Yrotation
                    JOINT LeftHandPinky3
                    {
                      OFFSET 1.6774 -0.349396 -0.4633
                      CHANNELS 3 Zrotation Xrotation Yrotation
                      End Site
                      {
                        OFFSET 1.4888 -0.4091 -0.3416
                      }
                    }
                  }
                }
                JOINT LeftHandThumb1
                {
                  OFFSET 1.833 -1.3875 1.3896
                  CHANNELS 3 Zrotation Xrotation Yrotation
                  JOINT LeftHandThumb2
                  {
                    OFFSET 3.4129 -1.121 2.5732
                    CHANNELS 3 Zrotation Xrotation Yrotation
                    JOINT LeftHandThumb3
                    {
                      OFFSET 2.2474 -0.804199 1.6192
                      CHANNELS 3 Zrotation Xrotation Yrotation
                      End Site
                      {
                        OFFSET 1.6527 -0.5689 1.1317
                      }
                    }
                  }
                }
              }
            }
          }
        }
        JOINT RightShoulder
        {
          OFFSET -2.2086 21.1115 7.2329
          CHANNELS 3 Zrotation Xrotation Yrotation
          JOINT RightArm
          {
            OFFSET -13.1216 3.0287 -4.9007
            CHANNELS 3 Zrotation Xrotation Yrotation
            JOINT RightForeArm
            {
              OFFSET -27.4081 -0.0973053 -0.2375
              CHANNELS 3 Zrotation Xrotation Yrotation
              JOINT RightHand
              {
                OFFSET -22.8641 0.0664063 -0.1369
                CHANNELS 3 Zrotation Xrotation Yrotation
                JOINT RightHandIndex1
                {
                  OFFSET -8.8614 0.774994 2.4612
                  CHANNELS 3 Zrotation Xrotation Yrotation
                  JOINT RightHandIndex2
                  {
                    OFFSET -3.3146 -0.808304 0.5841
                    CHANNELS 3 Zrotation Xrotation Yrotation
                    JOINT RightHandIndex3
                    {
                      OFFSET -2.2628 -0.552002 0.3989
                      CHANNELS 3 Zrotation Xrotation Yrotation
                      End Site
                      {
                        OFFSET -1.6102 -0.4807 0.2612
                      }
                    }
                  }
                }
                JOINT RightHandMiddle1
                {
                  OFFSET -8.9937 0.894989 0.2143
                  CHANNELS 3 Zrotation Xrotation Yrotation
                  JOINT RightHandMiddle2
                  {
                    OFFSET -4.0984 0.0113983 -0.0242
                    CHANNELS 3 Zrotation Xrotation Yrotation
                    JOINT RightHandMiddle3
                    {
                      OFFSET -2.2716 0.00691223 -0.0138001
                      CHANNELS 3 Zrotation Xrotation Yrotation
                      End Site
                      {
                        OFFSET -2.0404 -0.1441 0.0027
                      }
                    }
                  }
                }
                JOINT RightHandRing1
                {
                  OFFSET -8.5234 0.597198 -2.0164
                  CHANNELS 3 Zrotation Xrotation Yrotation
                  JOINT RightHandRing2
                  {
                    OFFSET -3.7188 -0.188309 -0.2328
                    CHANNELS 3 Zrotation Xrotation Yrotation
                    JOINT RightHandRing3
                    {
                      OFFSET -2.1191 -0.106598 -0.1332
                      CHANNELS 3 Zrotation Xrotation Yrotation
                      End Site
                      {
                        OFFSET -1.8737 -0.2304 -0.0886
                      }
                    }
                  }
                }
                JOINT RightHandPinky1
                {
                  OFFSET -7.9094 -0.601105 -3.4825
                  CHANNELS 3 Zrotation Xrotation Yrotation
                  JOINT RightHandPinky2
                  {
                    OFFSET -2.2874 -0.477005 -0.6314
                    CHANNELS 3 Zrotation Xrotation Yrotation
                    JOINT RightHandPinky3
                    {
                      OFFSET -1.6774 -0.349396 -0.4633
                      CHANNELS 3 Zrotation Xrotation Yrotation
                      End Site
                      {
                        OFFSET -1.4888 -0.4091 -0.3416
                      }
                    }
                  }
                }
                JOINT RightHandThumb1
                {
                  OFFSET -1.833 -1.38751 1.3896
                  CHANNELS 3 Zrotation Xrotation Yrotation
                  JOINT RightHandThumb2
                  {
                    OFFSET -3.41299 -1.12099 2.5732
                    CHANNELS 3 Zrotation Xrotation Yrotation
                    JOINT RightHandThumb3
                    {
                      OFFSET -2.24741 -0.804108 1.6192
                      CHANNELS 3 Zrotation Xrotation Yrotation
                      End Site
                      {
                        OFFSET -1.6527 -0.5689 1.1317
                      }
                    }
                  }
                }
              }
            }
          }
        }
      }
    }
  }
  JOINT RightUpLeg
  {
    OFFSET -9.1966 3.8861 -0.7581
    CHANNELS 3 Zrotation Xrotation Yrotation
    JOINT RightLeg
    {
      OFFSET -0.7359 -41.0265 0
      CHANNELS 3 Zrotation Xrotation Yrotation
      JOINT RightFoot
      {
        OFFSET 0 -40.2855 0
        CHANNELS 3 Zrotation Xrotation Yrotation
        JOINT RightToeBase
        {
          OFFSET 0 -5.6122 11.7359
          CHANNELS 3 Zrotation Xrotation Yrotation
          End Site
          {
            OFFSET 0 0 7.8731
          }
        }
      }
    }
  }
  JOINT LeftUpLeg
  {
    OFFSET 9.1965 3.8864 -0.7581
    CHANNELS 3 Zrotation Xrotation Yrotation
    JOINT LeftLeg
    {
      OFFSET 0.7359 -41.0268 0
      CHANNELS 3 Zrotation Xrotation Yrotation
      JOINT LeftFoot
      {
        OFFSET 0 -40.2855 0
        CHANNELS 3 Zrotation Xrotation Yrotation
        JOINT LeftToeBase
        {
          OFFSET 0 -5.6122 11.7359
          CHANNELS 3 Zrotation Xrotation Yrotation
          End Site
          {
            OFFSET 0 0 7.8731
          }
        }
      }
    }
  }
}
MOTION
Frames:	4
Frame Time:	0.0333333
26.1494 4.31816 -41.8213 89.9846 76.9891 180 2.23368 -0.215656 -0.330355 4.46613 -0.444078 -0.652127 4.46612 -0.444083 -0.652108 -0.0120354 13.5882 4.67777e-005 -0.0395569 -5.55571 -0.00420985 -15.295 -7.89254 -38.0068 -52.1954 -13.9096 -19.1658 17.0624 -21.2459 -64.1485 2.09805 1.05577 -1.72513 -3.18055e-015 3.18055e-015 -0 4.01823e-007 7.43494e-008 1.22571e-007 8.03646e-007 1.48699e-007 2.45143e-007 -3.18055e-015 3.18055e-015 -0 -0.0145968 -8.90627e-005 -1.01755e-006 8.0365e-007 1.48668e-007 2.45161e-007 -3.18055e-015 3.18055e-015 -0 -0.0187595 -0.00117388 5.53759e-005 8.03653e-007 1.48659e-007 2.45159e-007 -3.18055e-015 3.18055e-015 -0 -0.012249 -0.00323829 0.000673904 8.03657e-007 1.48669e-007 2.45136e-007 -3.18055e-015 3.18055e-015 -0 4.01823e-007 7.43494e-008 1.22571e-007 8.03646e-007 1.48699e-007 2.45143e-007 -23.0695 -15.1185 25.2045 37.8366 -15.4612 39.2073 46.7405 -28.1636 114.434 44.9494 18.2658 -8.57302 -0 0 3.18055e-015 -3.69636e-006 5.36347e-008 4.8992e-006 3.09887e-006 -1.57646e-006 7.085e-006 -0 0 3.18055e-015 0.014988 -9.9114e-005 -6.78436e-007 1.25215e-006 -3.57372e-007 3.5213e-006 -0 0 3.18055e-015 0.0189853 -0.00119174 -5.13307e-005 1.25207e-006 -3.5722e-007 3.52131e-006 -0 0 3.18055e-015 0.0122697 -0.00324679 -0.000668986 1.25232e-006 -3.57365e-007 3.52128e-006 -0 0 3.18055e-015 -3.69636e-006 5.36347e-008 4.8992e-006 3.09887e-006 -1.57646e-006 7.085e-006 13.4812 -25.0134 5.1884 5.22425 20.9267 -25.1864 -5.53296 33.4147 2.05037 8.74653e-015 0 7.95139e-016 -11.0541 -72.4283 -7.34449 4.24119 44.1061 -1.40857 4.79492 4.484 0.550752 -7.91708e-009 3.72171e-006 -1.62509e-007 
26.1485 4.31844 -41.9212 89.9846 76.9891 180 2.23316 -0.274969 -0.32265 4.46484 -0.56231 -0.63434 4.46485 -0.56229 -0.634349 -0.0120142 14.3836 3.72497e-005 -0.039494 -4.1825 -0.00452358 -15.4072 -7.7046 -38.3034 -51.9302 -14.036 -19.013 17.0956 -21.3108 -63.9643 1.98862 1.00268 -1.63483 -5.7657e-007 -7.67164e-007 6.52744e-007 -1.29399e-006 -8.95871e-008 1.36213e-006 -4.01826e-007 -7.43169e-008 -1.22585e-007 -5.7657e-007 -7.67164e-007 6.52744e-007 -0.0146133 -8.68577e-005 2.21799e-009 -4.01828e-007 -7.43014e-008 -1.22594e-007 -5.7657e-007 -7.67164e-007 6.52744e-007 -0.0187535 -0.0011781 6.19843e-005 -4.0183e-007 -7.42968e-008 -1.22593e-007 -5.7657e-007 -7.67164e-007 6.52744e-007 -0.0122842 -0.00324643 0.000676645 -4.01832e-007 -7.43019e-008 -1.22582e-007 -5.7657e-007 -7.67164e-007 6.52744e-007 -1.29399e-006 -8.95871e-008 1.36213e-006 -4.01826e-007 -7.43169e-008 -1.22585e-007 -23.0392 -14.916 25.5779 37.6485 -15.651 39.0496 46.8811 -28.4337 114.363 45.0721 18.2304 -8.60238 -3.18055e-015 1.59028e-015 3.18055e-015 -4.41391e-032 1.59028e-015 1.59028e-015 3.18055e-015 0 -0 -3.18055e-015 1.59028e-015 3.18055e-015 0.0150043 -9.03661e-005 -2.64717e-007 1.27222e-014 -1.59028e-015 -4.77083e-015 -3.18055e-015 1.59028e-015 3.18055e-015 0.0189853 -0.00119046 -6.01657e-005 -2.20695e-032 -1.59028e-015 -7.95139e-016 -3.18055e-015 1.59028e-015 3.18055e-015 0.0122332 -0.00323609 -0.000673309 6.36111e-015 -1.59028e-015 -2.38542e-015 -3.18055e-015 1.59028e-015 3.18055e-015 -4.41391e-032 1.59028e-015 1.59028e-015 3.18055e-015 0 -0 13.5137 -25.2832 5.17192 5.25791 21.5121 -25.1962 -5.43138 33.1553 2.01826 4.42726e-006 -8.11883e-008 -9.62945e-006 -11.0574 -72.426 -7.34154 4.32483 44.3307 -1.46126 4.7929 4.483 0.550885 -2.74406e-006 2.61075e-006 3.86124e-006 
26.1477 4.31868 -42.0108 89.9846 76.9891 180 2.23273 -0.327937 -0.315718 4.46371 -0.667893 -0.618499 4.46371 -0.6679 -0.618461 -0.0123195 15.0973 0.00021504 -0.0393973 -2.94842 -0.0048023 -15.5072 -7.53549 -38.5688 -51.6919 -14.1486 -18.8752 17.1255 -21.3687 -63.7996 1.89095 0.955092 -1.55429 -8.03657e-007 -1.48579e-007 -2.45197e-007 4.01829e-007 7.42894e-008 1.22598e-007 -8.03657e-007 -1.48579e-007 -2.45197e-007 -8.03657e-007 -1.48579e-007 -2.45197e-007 -0.0146104 -8.85139e-005 9.84424e-007 -8.03661e-007 -1.48547e-007 -2.45215e-007 -8.03657e-007 -1.48579e-007 -2.45197e-007 -0.0187531 -0.00117292 5.95613e-005 -8.03665e-007 -1.48538e-007 -2.45213e-007 -8.03657e-007 -1.48579e-007 -2.45197e-007 -0.0122651 -0.00324834 0.000676151 -8.03668e-007 -1.48549e-007 -2.4519e-007 -8.03657e-007 -1.48579e-007 -2.45197e-007 4.01829e-007 7.42894e-008 1.22598e-007 -8.03657e-007 -1.48579e-007 -2.45197e-007 -23.0132 -14.7342 25.9123 37.4793 -15.8206 38.9073 47.0071 -28.676 114.301 45.1817 18.1987 -8.62849 -3.18055e-015 -4.77083e-015 -3.18055e-015 -3.18055e-015 -1.59028e-015 1.59028e-015 3.18055e-015 -3.18055e-015 -1.59028e-015 -3.18055e-015 -4.77083e-015 -3.18055e-015 0.0149732 -8.82838e-005 -6.94827e-006 3.18055e-015 -1.59028e-015 -1.59028e-015 -3.18055e-015 -4.77083e-015 -3.18055e-015 0.0190063 -0.00118881 -6.02449e-005 -2.64834e-031 -4.77083e-015 -3.18055e-015 -3.18055e-015 -4.77083e-015 -3.18055e-015 0.0122939 -0.00325204 -0.00067861 -3.18055e-015 -3.18055e-015 -0 -3.18055e-015 -4.77083e-015 -3.18055e-015 -3.18055e-015 -1.59028e-015 1.59028e-015 3.18055e-015 -3.18055e-015 -1.59028e-015 13.5427 -25.5237 5.1573 5.28807 22.0365 -25.2052 -5.34122 32.9239 1.99022 1.77624e-006 8.83672e-007 4.40331e-006 -11.0603 -72.424 -7.33885 4.40008 44.5313 -1.50892 4.79108 4.48203 0.550988 -1.19271e-015 -4.77083e-015 -4.96962e-016 
26.1469 4.31892 -42.1003 89.9846 76.9891 180 2.23228 -0.380915 -0.308835 4.46265 -0.773536 -0.602594 4.46265 -0.773516 -0.602597 -0.0119736 15.8112 -2.93531e-005 -0.0392903 -1.71218 -0.00398662 -15.6063 -7.36586 -38.8339 -51.4532 -14.2607 -18.737 17.1556 -21.4265 -63.635 1.79335 0.907387 -1.47382 -2.98165e-007 -3.23014e-006 1.60223e-006 -4.0183e-007 -7.42643e-008 -1.22612e-007 -2.98165e-007 -3.23014e-006 1.60223e-006 -2.98165e-007 -3.23014e-006 1.60223e-006 -0.0146095 -9.24689e-005 1.37776e-006 -2.98329e-007 -3.23035e-006 1.60182e-006 -2.98165e-007 -3.23014e-006 1.60223e-006 -0.0187509 -0.00117762 5.57268e-005 -6.19227e-007 -2.47849e-006 2.43494e-006 -2.98165e-007 -3.23014e-006 1.60223e-006 -0.0122798 -0.00325359 0.000676383 -2.98277e-007 -3.23035e-006 1.6019e-006 -2.98165e-007 -3.23014e-006 1.60223e-006 -4.0183e-007 -7.42643e-008 -1.22612e-007 -2.98165e-007 -3.23014e-006 1.60223e-006 -22.9884 -14.5522 26.2465 37.3095 -15.9899 38.7645 47.1332 -28.9185 114.239 45.2912 18.167 -8.65458 1.5269e-006 -5.9244e-007 2.30974e-006 6.36111e-015 3.18055e-015 -0 9.54166e-015 -1.59028e-015 -3.18055e-015 1.5269e-006 -5.9244e-007 2.30974e-006 0.0149781 -8.91322e-005 -8.44307e-007 -6.62086e-032 -1.59028e-015 -2.38542e-015 1.5269e-006 -5.9244e-007 2.30974e-006 0.0190083 -0.00119127 -5.69612e-005 6.62086e-032 4.77083e-015 -7.95139e-016 1.5269e-006 -5.9244e-007 2.30974e-006 0.0122437 -0.00324624 -0.000682008 -6.36111e-015 -3.18055e-015 7.95139e-016 1.5269e-006 -5.9244e-007 2.30974e-006 6.36111e-015 3.18055e-015 -0 9.54166e-015 -1.59028e-015 -3.18055e-015 13.5687 -25.7638 5.14191 5.3243 22.5596 -25.217 -5.25491 32.6919 1.96369 7.95139e-016 -3.18055e-015 3.97569e-015 -11.0632 -72.4219 -7.33615 4.47579 44.7318 -1.5571 4.7893 4.48115 0.551109 -2.26523e-008 7.40897e-006 -3.33204e-007 
